<?xml version="1.0" encoding="iso-8859-1"?>
<!-- Generator: Adobe Illustrator 19.0.0, SVG Export Plug-In . SVG Version: 6.00 Build 0)  -->
<svg version="1.1" id="Capa_1" xmlns="http://www.w3.org/2000/svg" xmlns:xlink="http://www.w3.org/1999/xlink" x="0px" y="0px"
	 viewBox="0 0 490.653 490.653" style="enable-background:new 0 0 490.653 490.653;" xml:space="preserve">
<g>
	<g>
		<circle cx="394.667" cy="426.66" r="53.333"/>
	</g>
</g>
<g>
	<g>
		<circle cx="181.333" cy="426.66" r="53.333"/>
	</g>
</g>
<g>
	<g>
		<path d="M437.333,330.66H191.125c-25.323,0-47.317-18.027-52.288-42.88L85.12,19.236c-1.003-4.992-5.376-8.576-10.453-8.576h-64
			C4.779,10.66,0,15.438,0,21.326s4.779,10.667,10.667,10.667H65.92l51.989,259.989c6.955,34.773,37.76,60.011,73.216,60.011
			h246.208c5.888,0,10.667-4.779,10.667-10.667C448,335.438,443.221,330.66,437.333,330.66z"/>
	</g>
</g>
<g>
	<g>
		<path d="M488,78.265c-2.027-2.283-4.928-3.605-8-3.605H96c-5.888,0-10.667,4.779-10.667,10.667S90.112,95.993,96,95.993h2.133
			l38.464,192.32c-5.461,1.109-9.259,6.165-8.512,11.755c0.725,5.355,5.291,9.259,10.56,9.259c0.469,0,0.939-0.021,1.408-0.085
			l320-42.667c4.821-0.64,8.576-4.437,9.173-9.259L490.56,86.649C490.965,83.62,490.027,80.548,488,78.265z M183.083,266.51
			c-0.597,0.107-1.173,0.149-1.771,0.149c-5.12,0-9.643-3.691-10.517-8.917l-21.333-128c-0.96-5.803,2.965-11.307,8.789-12.267
			c5.803-1.003,11.307,2.965,12.267,8.768l21.333,128C192.832,260.046,188.885,265.55,183.083,266.51z M235.627,255.95
			c-0.32,0.043-0.64,0.043-0.981,0.043c-5.461,0-10.112-4.16-10.624-9.707l-10.667-117.333c-0.533-5.867,3.797-11.072,9.664-11.584
			c6.037-0.576,11.051,3.797,11.584,9.664l10.667,117.333C245.824,250.233,241.493,255.417,235.627,255.95z M298.667,234.66
			c0,5.888-4.779,10.667-10.667,10.667s-10.667-4.779-10.667-10.667V127.993c0-5.888,4.779-10.667,10.667-10.667
			s10.667,4.779,10.667,10.667V234.66z M362.581,129.166l-10.645,96c-0.597,5.461-5.227,9.493-10.603,9.493
			c-0.405,0-0.789-0.021-1.195-0.064c-5.845-0.661-10.069-5.931-9.429-11.776l10.667-96c0.661-5.845,6.144-9.984,11.776-9.429
			C358.997,118.052,363.221,123.321,362.581,129.166z M426.347,130.574l-21.333,85.333c-1.216,4.864-5.547,8.085-10.347,8.085
			c-0.853,0-1.728-0.107-2.603-0.32c-5.717-1.429-9.195-7.211-7.765-12.928l21.333-85.333c1.429-5.739,7.168-9.237,12.928-7.765
			C424.299,119.076,427.776,124.878,426.347,130.574z"/>
	</g>
</g>
<g>
</g>
<g>
</g>
<g>
</g>
<g>
</g>
<g>
</g>
<g>
</g>
<g>
</g>
<g>
</g>
<g>
</g>
<g>
</g>
<g>
</g>
<g>
</g>
<g>
</g>
<g>
</g>
<g>
</g>
</svg>
